<?xml version="1.0" encoding="utf-8"?>
<!-- Generator: Adobe Illustrator 24.3.0, SVG Export Plug-In . SVG Version: 6.00 Build 0)  -->
<svg version="1.1" id="Layer_1" xmlns="http://www.w3.org/2000/svg" xmlns:xlink="http://www.w3.org/1999/xlink" x="0px" y="0px"
	 viewBox="0 0 348 348" style="enable-background:new 0 0 348 348;" xml:space="preserve">
<style type="text/css">
	.st0{fill:#F9CBCD;}
	.st1{fill:#FFF2D2;}
	.st2{fill:none;stroke:#F7A18A;stroke-width:5;stroke-linecap:round;stroke-linejoin:round;stroke-miterlimit:10;}
	.st3{fill:none;stroke:#F7A18A;stroke-width:6;stroke-linecap:round;stroke-linejoin:round;stroke-miterlimit:10;}
	.st4{opacity:0.41;}
	.st5{fill:#FFFFFF;}
	.st6{opacity:0.04;}
</style>
<g>
	<path class="st0" d="M174,0C77.9,0,0,77.9,0,174s77.9,174,174,174s174-77.9,174-174S270.1,0,174,0z M174.39,220
		c-25.41,0-46-20.59-46-46s20.59-46,46-46s46,20.59,46,46S199.8,220,174.39,220z"/>
	<g>
		<path class="st1" d="M304.28,264.5c-5.37-2.4-12.4-6.68-26.5-12.5c-7.73-3.19-11.28-4.28-15-3c-5.2,1.79-7.37,6.75-12,17
			c-12.62,27.9-15.4,32.77-21,35c-5.02,2-10.9,1.31-15-1c-6.14-3.46-6.34-9.45-12-22c-6.08-13.47-9.71-21.53-16-23
			c-8.83-2.07-18.88,9.79-25,17c-14.71,17.35-15.22,31.03-24,32c-6.79,0.75-13.16-6.68-16-10c-9.1-10.62-6.27-20.25-14-24
			c-5.62-2.73-12.22-0.11-15,1c-2.47,0.98-5.86,2.81-15,13c-5.63,6.28-8.99,10.77-10,12c-2.17,2.63-5.7,4.98-11.53,6.29
			C87.21,330.67,128.47,348,173.78,348c61.16,0,114.94-31.56,145.97-79.28C313.24,267.92,308.15,266.23,304.28,264.5z"/>
	</g>
	<line class="st2" x1="125.33" y1="62.59" x2="139.45" y2="79.27"/>
	<line class="st2" x1="132.33" y1="235.59" x2="146.45" y2="252.27"/>
	<line class="st2" x1="244.33" y1="127.59" x2="258.45" y2="144.27"/>
	<line class="st2" x1="237.33" y1="62.59" x2="251.45" y2="79.27"/>
	<line class="st2" x1="32.33" y1="180.59" x2="46.45" y2="197.27"/>
	<line class="st2" x1="53.45" y1="248.47" x2="73.33" y2="239.39"/>
	<line class="st2" x1="260.45" y1="215.47" x2="280.33" y2="206.39"/>
	<line class="st2" x1="299.45" y1="127.47" x2="319.33" y2="118.39"/>
	<line class="st2" x1="53.45" y1="83.47" x2="73.33" y2="74.39"/>
	<line class="st2" x1="173.45" y1="40.47" x2="193.33" y2="31.39"/>
	<line class="st3" x1="314.39" y1="173" x2="314.39" y2="188.86"/>
	<line class="st3" x1="220.39" y1="223" x2="220.39" y2="238.86"/>
	<line class="st3" x1="91.39" y1="189" x2="91.39" y2="204.86"/>
	<line class="st3" x1="108.39" y1="112" x2="108.39" y2="127.86"/>
	<line class="st3" x1="59.39" y1="128" x2="59.39" y2="143.86"/>
	<line class="st3" x1="193.39" y1="83" x2="193.39" y2="98.86"/>
	<g class="st4">
		<path class="st5" d="M19.64,223.36c-7.23-21.76-9.04-45.57-5.71-68.73c3.33-23.18,11.82-45.74,24.6-65.53
			C51.31,69.3,68.37,52.27,88.13,39.7c19.74-12.57,42.19-20.71,65-23.06c-21.72,7.25-41.92,17.45-59.64,30.82
			C75.78,60.78,60.57,77.14,48.62,95.61c-11.93,18.48-20.58,39.08-25.43,60.71C18.28,177.97,17.3,200.58,19.64,223.36z"/>
	</g>
	<path class="st6" d="M240.97,13.61C286.52,44.99,316.39,97.5,316.39,157c0,96.1-77.9,174-174,174c-23.97,0-46.8-4.85-67.58-13.61
		c28.02,19.3,61.98,30.61,98.58,30.61c96.1,0,174-77.9,174-174C347.39,101.87,303.5,39.99,240.97,13.61z"/>
</g>
</svg>
