<?xml version="1.0" encoding="utf-8"?>
<!-- Generator: Adobe Illustrator 24.3.0, SVG Export Plug-In . SVG Version: 6.00 Build 0)  -->
<svg version="1.1" id="Layer_1" xmlns="http://www.w3.org/2000/svg" xmlns:xlink="http://www.w3.org/1999/xlink" x="0px" y="0px"
	 viewBox="0 0 124.35 173.19" style="enable-background:new 0 0 124.35 173.19;" xml:space="preserve">
<style type="text/css">
	.st0{fill:none;stroke:#231F20;stroke-miterlimit:10;}
	.st1{fill:#231F20;}
</style>
<g>
	<path class="st0" d="M96.67,102.48c-3.43-9.41-8.39-20.59-11.09-26.52c-1.91-4.2-2.41-9-1.24-13.23c1.34-4.85,3.9-10.09,6.39-15.42
		c3.91-8.36,0.9-15.1-3.2-24.43S73.75,8.69,55.77,11.49c-11.97,1.86-32.21,9.94-42.32,15.28C6.04,30.68,1.1,38.94,0.94,48.36
		c-0.05,2.82-0.33,9.08-0.43,15.67c-0.16,11.36,2.55,22.81,7.74,32.9c5.85,11.38,14.56,27.37,21.44,36.08
		c11.45,14.51,56.67-10.96,56.67-10.96S101.32,115.23,96.67,102.48z"/>
	<g>
		<path class="st1" d="M24.42,171.42c0.96,1.22,2.31,1.83,3.66,1.76l23.52-1.14c0,0,3.06-0.47,2.67-5.67s-4.11-41.56-4.11-41.56
			s-0.86-12.81-7.06-20.81s-9.79-21.78-9.9-30.56s0.04-24.45,0.2-27.21c0.16-2.75-0.96-4.42-2.87-4.7c-1.26-0.19-5.36,0.09-7.99,0.3
			c-1.43,0.11-2.66,1.25-3.16,2.92C14.9,59.87-5.07,134.08,24.42,171.42z"/>
		<path class="st1" d="M65.85,76.92c-0.08-2.97-0.41-6.59-0.61-8.52c-0.14-1.37,0.17-2.74,0.88-3.78c0.82-1.19,2.01-2.36,3.19-3.56
			c1.85-1.88,1.65-4.07,1.38-7.09s-2.49-5.41-7.71-6.59c-3.47-0.79-9.8-0.75-13.09-0.38c-2.41,0.27-4.53,2.02-5.45,4.6
			c-0.27,0.77-0.93,2.47-1.57,4.27c-1.1,3.11-1.41,6.57-0.91,9.91c0.56,3.77,1.49,9.13,2.58,12.28c1.82,5.24,16.65,3.13,16.65,3.13
			S65.95,80.94,65.85,76.92z"/>
		<path class="st1" d="M31.86,0.32l31.72,4.57c0,0,10.54,1.14,23.35-2.17s17.56,1.87,21.74,4.61c4.18,2.75,9.58,0.83,9.58,0.83
			s7.54-2.2,5.84,9.52c-1.69,11.71-17.8,13.91-17.8,13.91C91.66,33.46,39,30.1,30.54,31.32c-8.46,1.22-9.04-1.15-10.52-3.18
			c-1.48-2.02-2.52-11.71-0.75-19.85c0.06-0.25,0.12-0.5,0.18-0.74c0,0,1.56-7.86,6.99-7.55S31.86,0.32,31.86,0.32z"/>
	</g>
</g>
</svg>
