<?xml version="1.0" encoding="utf-8"?>
<!-- Generator: Adobe Illustrator 24.3.0, SVG Export Plug-In . SVG Version: 6.00 Build 0)  -->
<svg version="1.1" id="Layer_1" xmlns="http://www.w3.org/2000/svg" xmlns:xlink="http://www.w3.org/1999/xlink" x="0px" y="0px"
	 viewBox="0 0 527.07 116.55" style="enable-background:new 0 0 527.07 116.55;" xml:space="preserve">
<style type="text/css">
	.st0{fill:#333;stroke:#333;stroke-width:0.75;stroke-miterlimit:10;}
	.st1{fill:#F7A18A;}
	.st2{fill:#ACDBD1;}
	.st3{fill:#99D3E7;}
</style>
<g>
	<g>
		<path class="st0" d="M395.62,65.66c-0.19-1.71-0.64-3.78-0.89-4.89c-0.18-0.78,0.02-1.59,0.57-2.23c0.64-0.73,1.59-1.46,2.53-2.2
			c1.48-1.17,1.21-2.42,0.85-4.15c-0.36-1.73-2.33-3.01-6.78-3.44c-2.96-0.29-8.29,0.02-11.03,0.39c-2.01,0.27-3.73,1.38-4.38,2.91
			c-0.2,0.46-0.68,1.47-1.13,2.54c-0.78,1.85-0.89,3.86-0.33,5.76c0.64,2.15,1.65,5.2,2.71,6.97c1.76,2.94,14.15,1.03,14.15,1.03
			S395.89,67.98,395.62,65.66z"/>
		<path class="st0" d="M372.03,84.97l-3.75-21.73c0,0-0.96-7.22,1.39-16.04s-1.58-12.04-3.68-14.88c-2.1-2.85-0.72-6.57-0.72-6.57
			s1.57-5.19-7.2-3.93c-8.77,1.26-10.25,12.33-10.25,12.33c-1.26,10.06,1.8,46.18,0.96,51.99c-0.83,5.81,0.96,6.19,2.49,7.19
			c1.53,1,8.8,1.63,14.9,0.35c0.19-0.04,0.37-0.08,0.55-0.13c0,0,5.88-1.14,5.59-4.86C372.03,84.97,372.03,84.97,372.03,84.97z"/>
		<path class="st0" d="M431.17,9.08c0.8,0.55,1.21,1.34,1.18,2.14l-0.42,13.87c0,0-0.26,1.81-3.62,1.64
			c-3.35-0.17-26.81-1.97-26.81-1.97s-8.26-0.37-13.49-3.93s-14.15-5.53-19.81-5.5c-5.66,0.03-15.74,0.29-17.51,0.41
			s-2.86-0.52-3.07-1.64c-0.14-0.74-0.01-3.16,0.09-4.71c0.05-0.85,0.77-1.58,1.84-1.89C359.23,4.68,406.74-7.88,431.17,9.08z"/>
		<path class="st0" d="M431.17,106.04c0.8-0.55,1.21-1.34,1.18-2.14l-0.42-13.87c0,0-0.26-1.81-3.62-1.64
			c-3.35,0.17-26.81,1.97-26.81,1.97s-8.26,0.37-13.49,3.93s-14.15,5.53-19.81,5.5c-5.66-0.03-15.74-0.29-17.51-0.41
			c-1.77-0.12-2.86,0.52-3.07,1.64c-0.14,0.74-0.01,3.16,0.09,4.71c0.05,0.85,0.77,1.58,1.84,1.89
			C359.23,110.44,406.74,123,431.17,106.04z"/>
	</g>
	<g>
		<path class="st0" d="M299.68,42.08c0.02-1.3-0.09-2.91-0.16-3.76c-0.05-0.6,0.14-1.2,0.55-1.64c0.46-0.5,1.13-0.98,1.79-1.48
			c1.04-0.78,0.97-1.74,0.88-3.08c-0.09-1.33-1.23-2.44-4.02-3.11c-1.86-0.44-5.27-0.6-7.05-0.53c-1.3,0.05-2.48,0.76-3.03,1.87
			c-0.16,0.33-0.55,1.06-0.93,1.83c-0.65,1.34-0.89,2.85-0.69,4.33c0.23,1.67,0.62,4.05,1.15,5.46c0.88,2.35,8.91,1.83,8.91,1.83
			S299.65,43.85,299.68,42.08z"/>
		<path class="st0" d="M264.1,24.98l25.34-2.59c0,0,8.41-0.57,18.49,2.4s14.01-0.92,17.41-2.93c3.4-2.01,7.64-0.35,7.64-0.35
			s5.93,1.94,4.91-7.24S324.14,2.87,324.14,2.87c-11.59-1.91-53.54-0.89-60.23-2.11c-6.69-1.21-7.21,0.62-8.45,2.16
			s-2.33,9.05-1.15,15.45c0.04,0.2,0.08,0.39,0.12,0.58c0,0,1.02,6.17,5.34,6.1C264.1,24.98,264.1,24.98,264.1,24.98z"/>
		<path class="st0" d="M295.41,115.34c-0.66,0.6-1.58,0.89-2.51,0.84l-16.12-0.96c0,0-2.1-0.29-1.84-2.93
			c0.26-2.64,2.75-21.06,2.75-21.06s0.57-6.5,4.81-10.47c4.23-3.97,6.68-10.91,6.74-15.38c0.06-4.47-0.06-12.43-0.17-13.84
			c-0.11-1.4,0.65-2.23,1.96-2.34c0.86-0.08,3.67,0.13,5.47,0.28c0.98,0.08,1.82,0.68,2.17,1.54
			C301.77,58.77,315.56,96.83,295.41,115.34z"/>
	</g>
	<g>
		<path class="st0" d="M129.37,27.37c1.47-1.31,3.15-3.07,4.03-4.02c0.62-0.67,1.48-1.05,2.38-1.01c1.02,0.05,2.23,0.36,3.44,0.66
			c1.9,0.46,2.91-0.61,4.31-2.07c1.4-1.46,1.48-3.98-0.58-8.02c-1.37-2.69-4.62-6.97-6.48-9.03c-1.37-1.52-3.34-2.22-5.12-1.75
			c-0.53,0.14-1.73,0.41-2.98,0.75c-2.14,0.58-4.06,1.83-5.51,3.58c-1.63,1.98-3.89,4.87-4.94,6.95c-1.74,3.45,6.9,12.61,6.9,12.61
			S127.38,29.14,129.37,27.37z"/>
		<path class="st0" d="M137.99,40.99l-7.1,24.79c0,0-2.61,8.12-8.91,16.49c-6.3,8.37-4.37,13.52-3.88,17.47
			c0.49,3.95-2.51,7.31-2.51,7.31s-3.87,4.85,4.47,7.33c8.35,2.48,14.96-8.67,14.96-8.67c5.93-10.18,20.53-49.99,24.05-55.83
			s2.12-7.01,1.25-8.75c-0.88-1.73-7-5.58-12.99-6.87c-0.19-0.04-0.37-0.07-0.55-0.1c0,0-5.74-1.35-7.26,2.74
			S137.99,40.99,137.99,40.99z"/>
		<path class="st0" d="M80.55,94.93c0.47,1.08,1.34,1.81,2.34,2.05l17.37,4.11c0,0,2.32,0.3,3.03-3.56
			c0.71-3.86,4.9-31.04,4.9-31.04S110,57,107,49.89s-3-17.87-1.41-24.27c1.59-6.4,4.68-17.75,5.31-19.72
			c0.64-1.97,0.14-3.41-1.2-4.02c-0.88-0.4-3.92-1.06-5.88-1.46c-1.07-0.22-2.17,0.35-2.86,1.46
			C94.82,11.91,66.15,61.62,80.55,94.93z"/>
	</g>
	<g>
		<path class="st0" d="M243.94,7.15c0.81,0.54,1.28,1.38,1.34,2.28l1.1,15.58c0,0-0.05,2.05-3.22,2.19s-25.35,0.4-25.35,0.4
			s-7.78,0.39-13.07-3.09c-5.29-3.48-13.86-4.82-19.17-4.24s-14.73,1.85-16.38,2.16s-2.73-0.3-3.05-1.54
			c-0.21-0.82-0.35-3.53-0.42-5.28c-0.04-0.95,0.55-1.84,1.52-2.3C176,9.22,219.21-9.48,243.94,7.15z"/>
		<path class="st0" d="M233.03,107.96c0.81-0.54,1.28-1.38,1.34-2.28l1.1-15.58c0,0-0.05-2.05-3.22-2.19s-25.35-0.4-25.35-0.4
			s-7.78-0.39-13.07,3.09c-5.29,3.48-13.86,4.82-19.17,4.24c-5.3-0.59-14.73-1.85-16.38-2.16c-1.65-0.31-2.73,0.3-3.05,1.54
			c-0.21,0.82-0.35,3.53-0.42,5.28c-0.04,0.95,0.55,1.84,1.52,2.3C165.09,105.9,208.3,124.6,233.03,107.96z"/>
		<path class="st0" d="M179.06,41.54l15.59,14.38c0,0,5,4.93,8.88,12.89c3.88,7.96,8.32,8.24,11.39,9.24c3.06,1,4.45,4.57,4.45,4.57
			s2.16,4.79,6.95-0.98c4.79-5.77-1.01-14.95-1.01-14.95c-5.33-8.3-29.23-33.94-32.24-38.8s-4.37-4.16-5.95-4.07
			s-6.57,3.6-9.64,7.91c-0.1,0.13-0.19,0.27-0.27,0.4c0,0-3.03,4.08-0.58,6.74C179.06,41.54,179.06,41.54,179.06,41.54z"/>
	</g>
	<g>
		<path class="st0" d="M473.24,31.07c0.18-3.05,0.69-6.77,0.98-8.75c0.21-1.4-0.11-2.83-0.93-3.93c-0.93-1.26-2.31-2.51-3.67-3.79
			c-2.14-2.01-1.82-4.25-1.41-7.35s3.12-5.47,9.34-6.48c4.14-0.67,11.64-0.38,15.52,0.13c2.84,0.38,5.31,2.26,6.31,4.95
			c0.3,0.81,1.03,2.58,1.72,4.46c1.2,3.25,1.46,6.82,0.77,10.24c-0.78,3.86-2.05,9.34-3.44,12.54c-2.32,5.33-19.83,2.56-19.83,2.56
			S472.99,35.2,473.24,31.07z"/>
		<path class="st0" d="M523.99,97.4l-13.48-17.5c0,0-4.28-5.95-7.04-14.9c-2.76-8.95-7.12-9.93-10.01-11.45
			c-2.89-1.52-3.78-5.49-3.78-5.49s-1.49-5.36-7.01-0.05s-1.02,15.85-1.02,15.85c4.15,9.54,24.33,40.14,26.65,45.7
			c2.32,5.56,3.76,5.04,5.34,5.19c1.57,0.15,6.98-2.76,10.61-6.81c0.11-0.13,0.22-0.25,0.32-0.38c0,0,3.55-3.82,1.49-6.98
			C523.99,97.4,523.99,97.4,523.99,97.4z"/>
		<path class="st0" d="M452.82,113.15c0.69,1.07,1.67,1.62,2.67,1.59l17.27-0.5c0,0,2.25-0.34,2.03-4.83
			c-0.22-4.49-2.55-35.88-2.55-35.88s-0.49-11.05-4.95-18.07s-6.94-18.96-6.92-26.53c0.02-7.57,0.3-21.06,0.45-23.43
			s-0.65-3.82-2.05-4.11c-0.92-0.19-3.93-0.03-5.86,0.1c-1.05,0.07-1.96,1.02-2.35,2.45C447.09,16.86,431.61,80.39,452.82,113.15z"
			/>
	</g>
	<g>
		<path class="st0" d="M11.91,113.58c0.7,0.8,1.68,1.21,2.67,1.16l17.17-0.75c0,0,2.23-0.31,1.95-3.75s-3-27.44-3-27.44
			s-0.63-8.46-5.15-13.74c-4.52-5.29-7.15-14.38-7.22-20.18c-0.08-5.8,0.03-16.15,0.14-17.97c0.11-1.82-0.7-2.92-2.09-3.11
			c-0.92-0.12-3.91,0.06-5.83,0.2c-1.05,0.08-1.94,0.82-2.3,1.93C4.96,39.91-9.61,88.92,11.91,113.58z"/>
		<path class="st0" d="M42.15,51.17c-0.06-1.96-0.3-4.35-0.44-5.63c-0.1-0.9,0.12-1.81,0.64-2.5c0.6-0.79,1.47-1.56,2.33-2.35
			c1.35-1.24,1.2-2.69,1-4.68s-1.82-3.57-5.62-4.35c-2.54-0.52-7.15-0.5-9.55-0.25c-1.76,0.18-3.31,1.33-3.98,3.04
			c-0.2,0.51-0.68,1.63-1.14,2.82c-0.8,2.06-1.03,4.34-0.66,6.55c0.41,2.49,1.08,6.03,1.88,8.11c1.33,3.46,12.15,2.07,12.15,2.07
			S42.22,53.82,42.15,51.17z"/>
		<path class="st0" d="M17.34,0.59L40.49,3.6c0,0,7.69,0.75,17.04-1.43S70.35,3.4,73.4,5.22c3.05,1.81,6.99,0.55,6.99,0.55
			s5.5-1.45,4.27,6.28c-1.24,7.74-12.99,9.18-12.99,9.18c-10.69,1.24-49.12-0.98-55.29-0.17c-6.17,0.81-6.59-0.76-7.67-2.1
			S6.86,11.23,8.15,5.85c0.04-0.17,0.08-0.33,0.13-0.49c0,0,1.14-5.19,5.1-4.98S17.34,0.59,17.34,0.59z"/>
	</g>
</g>
<rect x="793.38" y="87.05" class="st1" width="103" height="103"/>
<rect x="793.38" y="219.05" class="st2" width="103" height="116"/>
<rect x="793.38" y="387.05" class="st3" width="103" height="124"/>
</svg>
