<svg id="Layer_1" data-name="Layer 1" xmlns="http://www.w3.org/2000/svg" viewBox="0 0 118.44 164.92"><defs><style>.cls-1{fill:none;stroke:#231f20;stroke-miterlimit:10;}.cls-2{fill:#231f20;}</style></defs><path class="cls-1" d="M92.08,97.59c-3.27-9-8-19.61-10.56-25.25a18.83,18.83,0,0,1-1.19-12.6c1.28-4.62,3.72-9.61,6.09-14.69,3.72-8,.86-14.38-3-23.26S70.25,8.28,53.13,10.94c-11.4,1.77-30.67,9.47-40.3,14.55C5.77,29.21,1.07,37.08.92,46.05.87,48.73.6,54.69.51,61A66.74,66.74,0,0,0,7.88,92.29c5.57,10.83,13.86,26.06,20.42,34.36,10.9,13.81,54-10.43,54-10.43S96.5,109.73,92.08,97.59Z"/><path class="cls-2" d="M23.27,163.24a4.19,4.19,0,0,0,3.49,1.67l22.4-1.08s2.91-.45,2.55-5.4-3.91-39.57-3.91-39.57S47,106.66,41.07,99s-9.32-20.74-9.42-29.1,0-23.29.19-25.91-.91-4.21-2.73-4.48a57.63,57.63,0,0,0-7.61.29,3.59,3.59,0,0,0-3,2.78C14.21,57-4.8,127.67,23.27,163.24Z"/><path class="cls-2" d="M62.73,73.24c-.07-2.82-.39-6.27-.58-8.11a5.46,5.46,0,0,1,.84-3.6,26.53,26.53,0,0,1,3-3.39c1.76-1.79,1.57-3.88,1.31-6.75S65,46.24,60,45.11a48,48,0,0,0-12.46-.36,6.42,6.42,0,0,0-5.19,4.38c-.26.74-.89,2.35-1.49,4.07A19.83,19.83,0,0,0,40,62.64a77.8,77.8,0,0,0,2.46,11.7c1.73,5,15.85,3,15.85,3S62.83,77.07,62.73,73.24Z"/><path class="cls-2" d="M30.37.3l30.2,4.35A68.72,68.72,0,0,0,82.8,2.59C95-.56,99.53,4.37,103.51,7s9.12.79,9.12.79,7.18-2.09,5.57,9.06-17,13.25-17,13.25c-13.94,1.78-64.09-1.42-72.15-.25s-8.6-1.1-10-3-2.4-11.15-.72-18.9c.06-.24.11-.48.18-.71,0,0,1.48-7.48,6.65-7.18Z"/></svg>